HIERARCHY
ROOT Hips
{
	OFFSET -3.958830 18.904000 13.208200
	CHANNELS 6 Xposition Yposition Zposition Zrotation Yrotation Xrotation 
	JOINT LHipJoint
	{
		OFFSET 0.000000 0.000000 0.000000
		CHANNELS 3 Zrotation Yrotation Xrotation
		JOINT LeftUpLeg
		{
			OFFSET 1.800000 -1.400000 0.085000
			CHANNELS 3 Zrotation Yrotation Xrotation
			JOINT LeftLeg
			{
				OFFSET 2.215000 -6.000000 0.000000
				CHANNELS 3 Zrotation Yrotation Xrotation
				JOINT LeftFoot
				{
					OFFSET 2.500000 -6.900000 0.000000
					CHANNELS 3 Zrotation Yrotation Xrotation
					JOINT LeftToeBase
					{
						OFFSET 0.200000 -0.500000 1.950000
						CHANNELS 3 Zrotation Yrotation Xrotation
						End Site
						{
							OFFSET 0.000000 0.000000 0.000000
						}
					}
				}
			}
		}
	}
	JOINT RHipJoint
	{
		OFFSET 0.000000 0.000000 0.000000
		CHANNELS 3 Zrotation Yrotation Xrotation
		JOINT RightUpLeg
		{
			OFFSET -1.800000 -1.400000 0.085000
			CHANNELS 3 Zrotation Yrotation Xrotation
			JOINT RightLeg
			{
				OFFSET -2.215000 -6.000000 0.000000
				CHANNELS 3 Zrotation Yrotation Xrotation
				JOINT RightFoot
				{
					OFFSET -2.500000 -6.900000 0.000000
					CHANNELS 3 Zrotation Yrotation Xrotation
					JOINT RightToeBase
					{
						OFFSET -0.200000 -0.500000 1.950000
						CHANNELS 3 Zrotation Yrotation Xrotation
						End Site
						{
							OFFSET 0.000000 0.000000 0.000000
						}
					}
				}
			}
		}
	}
	JOINT LowerBack
	{
		OFFSET 0.000000 0.000000 0.000000
		CHANNELS 3 Zrotation Yrotation Xrotation
		JOINT Spine
		{
			OFFSET -0.087000 1.940000 -0.288900
			CHANNELS 3 Zrotation Yrotation Xrotation
			JOINT Spine1
			{
				OFFSET 0.000000 1.950000 0.060000
				CHANNELS 3 Zrotation Yrotation Xrotation
				JOINT Neck
				{
					OFFSET 0.000000 0.000000 0.000000
					CHANNELS 3 Zrotation Yrotation Xrotation
					JOINT Neck1
					{
						OFFSET 0.000000 1.600000 0.340000
						CHANNELS 3 Zrotation Yrotation Xrotation
						JOINT Head
						{
							OFFSET 0.000000 1.667000 -0.240000
							CHANNELS 3 Zrotation Yrotation Xrotation
							End Site
							{
								OFFSET 0.000000 0.000000 0.000000
							}
						}
					}
				}
				JOINT LeftShoulder
				{
					OFFSET 0.000000 0.000000 0.000000
					CHANNELS 3 Zrotation Yrotation Xrotation
					JOINT LeftArm
					{
						OFFSET 2.700000 1.550000 -0.730000
						CHANNELS 3 Zrotation Yrotation Xrotation
						JOINT LeftForeArm
						{
							OFFSET 5.450000 0.000000 0.000000
							CHANNELS 3 Zrotation Yrotation Xrotation
							JOINT LeftHand
							{
								OFFSET 3.450000 0.000000 0.000000
								CHANNELS 3 Zrotation Yrotation Xrotation
								JOINT LeftHandIndex1
								{
									OFFSET 0.750000 0.000000 0.000000
									CHANNELS 3 Zrotation Yrotation Xrotation
									End Site
									{
										OFFSET 0.000000 0.000000 0.000000
									}
								}
							}
						}
					}
				}
				JOINT RightShoulder
				{
					OFFSET 0.000000 0.000000 0.000000
					CHANNELS 3 Zrotation Yrotation Xrotation
					JOINT RightArm
					{
						OFFSET -2.700000 1.550000 -0.730000
						CHANNELS 3 Zrotation Yrotation Xrotation
						JOINT RightForeArm
						{
							OFFSET -5.450000 0.000000 0.000000
							CHANNELS 3 Zrotation Yrotation Xrotation
							JOINT RightHand
							{
								OFFSET -3.450000 0.000000 0.000000
								CHANNELS 3 Zrotation Yrotation Xrotation
								JOINT RightHandIndex1
								{
									OFFSET -0.750000 0.000000 0.000000
									CHANNELS 3 Zrotation Yrotation Xrotation
									End Site
									{
										OFFSET 0.000000 0.000000 0.000000
									}
								}
							}
						}
					}
				}
			}
		}
	}
}
MOTION
Frames: 6
Frame Time: 0.016667
14.365590 15.953850 -21.099790 11.823025 53.659443 -4.826000 -15.775830 13.589058 2.409906 10.399048 -3.736778 4.316936 -6.732156 12.089578 39.943244 0.407968 9.076849 1.441421 0.661600 0.287910 0.691580 17.831325 -8.303792 5.135114 -22.957901 -3.323929 -49.322979 12.252957 -4.385323 5.041026 -0.392354 -3.050798 2.928617 0.191040 -0.110550 0.371490 -2.620521 -4.189837 -8.869548 9.363447 -8.779389 31.168085 0.888875 -8.175511 11.853081 5.972367 5.329318 -16.225936 8.126371 -12.124811 31.273393 -3.800300 -7.738240 -23.934560 -17.353893 -25.356003 9.009775 -22.762009 -5.433223 -3.688008 13.625026 -18.039532 -3.193405 -3.543280 2.947330 0.762650 -0.143090 0.308100 0.084030 4.657924 24.287564 11.640273 32.083387 6.945194 -12.582056 -35.885850 19.805726 -9.498038 2.074098 -1.605012 -0.078760 0.157560 -0.095960 -0.291920 
14.472180 15.856960 -21.020810 10.389065 52.773084 -7.879690 -15.773075 13.786426 2.485685 10.965771 -4.053045 6.812346 -5.985131 12.244534 41.806124 0.516437 9.364522 1.316072 0.706630 0.364960 0.699800 17.795642 -8.284143 5.045299 -21.543085 -2.754401 -48.271108 13.842855 -4.161782 4.832019 -0.430871 -2.902594 2.964325 0.206670 -0.200110 0.342280 -2.566649 -4.546790 -8.827947 11.281798 -9.386377 35.165082 0.002625 -7.946267 13.432496 6.143219 4.366067 -17.191457 6.125814 -12.727597 31.806804 -1.192140 -9.060300 -28.314330 -16.454161 -27.024896 9.397531 -21.572087 -6.348444 -2.690879 11.534967 -13.177963 -2.393861 -3.484919 2.919578 0.825440 -0.249590 0.380230 0.073880 3.188188 26.732749 13.122443 33.973580 4.575157 -12.664025 -33.551217 16.633933 -7.885614 2.148492 -1.603309 -0.044010 0.159960 -0.114940 -0.283470 
14.594390 15.766730 -20.872750 9.746030 52.455991 -7.828248 -15.800364 13.973046 2.583297 12.183112 -4.538673 7.240238 -6.799468 12.810712 41.954486 0.535919 9.535194 1.222411 0.726010 0.400840 0.732240 17.754723 -8.149164 4.980050 -20.214148 -2.293560 -49.513116 13.349688 -4.402502 6.662021 -0.443120 -2.739132 3.016383 0.209220 -0.261740 0.345780 -2.275518 -5.153352 -8.840426 11.117030 -9.372829 36.566206 1.663511 -8.117536 11.276277 6.356443 4.420640 -16.531583 6.104141 -12.283424 32.733845 -1.738470 -8.010350 -30.944300 -17.284793 -25.492549 8.806370 -23.393551 -6.419841 -2.410208 11.511798 -11.325394 -2.217417 -3.487493 2.876053 0.878810 -0.288110 0.437790 0.049160 3.648010 25.277219 12.513343 34.287452 5.268577 -10.821965 -31.199750 12.148087 -5.708444 2.224596 -1.530507 -0.030210 0.154810 -0.117950 -0.307280 
14.742420 15.691360 -20.750130 6.972998 51.655991 -9.190314 -15.719409 13.841965 2.600857 14.539077 -4.773061 8.945436 -8.532859 13.748358 40.416932 0.611771 9.749144 1.181722 0.658850 0.290240 0.648250 17.846710 -8.165951 4.998885 -18.473068 -1.190852 -51.778428 14.247453 -5.221694 10.689594 -0.422897 -2.850401 2.983936 0.134200 -0.200650 0.368780 -2.692363 -4.872961 -8.834139 15.311104 -11.765400 37.075516 0.035290 -8.240262 9.554896 5.451764 3.039485 -15.502671 3.415009 -10.861337 32.881974 1.587670 -8.006000 -30.352250 -15.137878 -23.703389 8.434716 -25.747887 -6.763846 -2.060968 10.800418 -10.216431 -2.055618 -3.504216 2.907383 0.889840 -0.286570 0.401140 0.060680 3.322135 23.229088 11.791700 36.757951 4.941838 -10.463174 -30.033976 11.907316 -4.951988 2.249220 -1.496307 -0.039670 0.129640 -0.073760 -0.283820 
14.850840 15.614200 -20.556630 7.262705 52.179034 -6.991380 -15.731122 13.553911 2.558921 15.581826 -5.231233 9.074995 -10.280550 14.429436 39.186278 0.601031 9.890019 1.163587 0.616060 0.227640 0.635220 17.906542 -7.935548 5.271566 -19.222134 -1.096305 -55.063757 16.569542 -6.755138 15.614121 -0.454564 -3.625767 2.724733 0.129270 -0.140550 0.354290 -2.700909 -4.693354 -8.944761 15.230870 -10.933689 36.098011 1.149504 -7.544074 8.899279 4.869160 3.793058 -15.467980 5.115060 -12.266351 30.667586 0.533150 -8.720630 -27.488460 -13.068145 -22.777653 7.857478 -25.819198 -8.036051 -1.090731 9.143723 -7.150307 -1.636037 -3.641786 2.836057 0.848540 -0.225190 0.335340 0.055670 2.299658 21.875756 12.206793 40.303786 2.747376 -9.585851 -27.755577 9.701632 -3.697811 2.265462 -1.505176 -0.083240 0.151520 -0.051070 -0.293520 
14.935350 15.646270 -20.326540 8.348347 53.006963 -6.725785 -15.773217 13.798420 2.584268 16.075690 -5.526782 11.025053 -9.511836 13.751850 37.736691 0.635433 9.695596 1.240413 0.538310 0.140310 0.570830 17.845434 -7.754278 5.313972 -20.336638 -1.731751 -53.697435 20.201849 -7.963719 17.696496 -0.548320 -4.285284 2.507839 0.035070 -0.153750 0.359590 -2.361901 -5.491729 -8.988002 13.338279 -10.348253 39.656581 2.526077 -6.980933 6.146430 4.145424 4.057701 -16.100344 5.044391 -13.149987 31.926731 2.882940 -9.635170 -28.919150 -13.487043 -22.786210 7.940228 -23.823571 -7.654018 -0.639331 8.989454 -2.702435 -1.239373 -3.684418 2.799064 0.885260 -0.264960 0.356880 0.035340 3.740028 21.645357 12.731544 41.271160 -1.235194 -10.003660 -26.411302 8.413824 -2.583555 2.326182 -1.426481 -0.067800 0.120450 -0.019420 -0.279220 
